<svg xmlns="http://www.w3.org/2000/svg" xmlns:xlink="http://www.w3.org/1999/xlink" width="45" height="87" version="1.1" viewBox="0 0 45 87"><title>shape</title><desc>Created with Sketch.</desc><g id="Page-1" fill="none" fill-rule="evenodd" stroke="none" stroke-width="1"><g id="slow-trade-2018-FINAL"><g id="#logo"><g id="shape"><path id="Combined-Shape" fill="#AFAFAF" d="M22.2858,0.0002 L35.7968,26.2702 L22.2858,26.2702 L22.2858,0.0002 Z M35.8056,26.2877 L44.5726,43.3347 L22.2856,43.3347 L35.8056,26.2877 Z"/><polygon id="Fill-3" fill="#0565B2" points="22.286 26.27 22.286 43.334 35.806 26.288"/><path id="Combined-Shape" fill="#FFF" d="M22.2853,0.0002 L22.2853,26.2702 L8.7753,26.2702 L22.2853,0.0002 Z M-1.77635684e-15,43.3343 L8.767,26.2873 L22.286,43.3343 L-1.77635684e-15,43.3343 Z"/><polygon id="Fill-6" fill="#43ABFF" points="8.775 26.27 22.286 26.27 22.286 43.334 8.766 26.288"/><path id="Combined-Shape" fill="#878787" d="M22.2858,60.3983 L35.7968,60.3983 L22.2858,86.6683 L22.2858,60.3983 Z M35.8056,60.3805 L22.2856,43.3345 L44.5726,43.3345 L35.8056,60.3805 Z"/><polygon id="Fill-9" fill="#044980" points="22.286 60.398 22.286 43.335 35.806 60.38"/><path id="Combined-Shape" fill="#D3D3D3" d="M8.775,60.3983 L22.286,60.3983 L22.286,86.6683 L8.775,60.3983 Z M-5.32907052e-15,43.3343 L22.286,43.3343 L8.767,60.3803 L-5.32907052e-15,43.3343 Z"/><polygon id="Fill-12" fill="#0072CF" points="8.775 60.398 22.286 60.398 22.286 43.335 8.766 60.38"/></g></g></g></g></svg>